/* XPM */
static char *battery[] = {
/* columns rows colors chars-per-pixel */
"24 24 5 1 ",
"  c #A6ABCD",
". c #A7ACCC",
"X c #A6ACCD",
"o c #A6ACCE",
"O c None",
/* pixels */
"OOOOOOOOOOOOOOOOOOOOOOOO",
"OOOOOOOOOOOOOOOOOOOOOOOO",
"OOOOOOOOOOOOOOOOOOOOOOOO",
"OOOOOOOOOOOOOOOOOOOOOOOO",
"OOOOOOOOOOOOOOOOOOOOOOOO",
"OO XXXXXXXXXXXXXXXXXOOOO",
"OOXXXXXXXXXOXXXXXXXXOOOO",
"OOXXXXXXXXOOXXXXXXXXOOOO",
"OOXXXXXXXXOOXXXXXXXXOOOO",
"OOXXXXXXXOOOXXXXXXXXOXXO",
"OOXXXXXXXOOOXXXXXXXXOXXO",
"OOXXXXXXOOOOOOOXXXXXOXXO",
"OOXXXXXOOOOOOOXXXXXXOXXO",
"OOXXXXXXXXOOOXXXXXXXOXXO",
"OOXXXXXXXXOOOXXXXXXXOXXO",
"OOXXXXXXXXOOXXXXXXXXOOOO",
"OOXXXXXXXXOOXXXXXXXXOOOO",
"OOXXXXXXXXOXXXXXXXXXOOOO",
"OO XXXXXXX.XXXXXXXX OOOO",
"OOOOOOOOOOOOOOOOOOOOOOOO",
"OOOOOOOOOOOOOOOOOOOOOOOO",
"OOOOOOOOOOOOOOOOOOOOOOOO",
"OOOOOOOOOOOOOOOOOOOOOOOO",
"OOOOOOOOOOOOOOOOOOOOOOOO"
};
