/* XPM */
static char *battery[] = {
/* columns rows colors chars-per-pixel */
"24 24 4 1 ",
"  c #A6ABCD",
". c #A6ACCD",
"X c #A6ACCE",
"o c None",
/* pixels */
"oooooooooooooooooooooooo",
"oooooooooooooooooooooooo",
"oooooooooooooooooooooooo",
"oooooooooooooooooooooooo",
"oooooooooooooooooooooooo",
"oo .................oooo",
"oo..................oooo",
"oo..................oooo",
"oo..................oooo",
"oo..................o..o",
"oo..................o..o",
"oo..................o..o",
"oo..................o..o",
"oo..................o..o",
"oo..................o..o",
"oo..................oooo",
"oo..................oooo",
"oo..................oooo",
"oo ................ oooo",
"oooooooooooooooooooooooo",
"oooooooooooooooooooooooo",
"oooooooooooooooooooooooo",
"oooooooooooooooooooooooo",
"oooooooooooooooooooooooo"
};
