/* XPM */
static char *calendar[] = {
/* columns rows colors chars-per-pixel */
"24 24 4 1 ",
"  c #A6ABCD",
". c #A6ACCD",
"X c #A6ACCE",
"o c None",
/* pixels */
"oooooooooooooooooooooooo",
"ooooooo..oooooo..ooooooo",
"ooooooo..oooooo..ooooooo",
"oo ...................oo",
"oo....................oo",
"oo....................oo",
"oo....................oo",
"oo....................oo",
"oo....................oo",
"oo..oooooooooooooooo..oo",
"oo..oooooooooooooooo..oo",
"oo..oo..oo........oo..oo",
"oo..oo..oo........oo..oo",
"oo..oooooooooooooooo..oo",
"oo..oooooooooooooooo..oo",
"oo..oo..oo.....ooooo..oo",
"oo..oo..oo.....ooooo..oo",
"oo..oooooooooooooooo..oo",
"oo..oooooooooooooooo..oo",
"oo....................oo",
"oo .................. oo",
"oooooooooooooooooooooooo",
"oooooooooooooooooooooooo",
"oooooooooooooooooooooooo"
};
