/* XPM */
static char *clock[] = {
/* columns rows colors chars-per-pixel */
"24 24 6 1 ",
"  c #A6ABCD",
". c #A6ACCC",
"X c #A6ACCD",
"o c #A7ACCD",
"O c #A6ACCE",
"+ c None",
/* pixels */
"++++++++++++++++++++++++",
"++++++++++++++++++++++++",
"+++++++++XXXXXo+++++++++",
"+++++++XXXXXXXXXX+++++++",
"+++++XXXXXXXXXXXXXO+++++",
"++++XXXXXXXXXXXXXXOO++++",
"++++XXXXXXXXXXXXXXXX++++",
"+++XXXXXXXX++XXXXXXXX+++",
"+++XXXXXXXX++XXXXXXXX+++",
"++XXXXXXXXX++XXXXXXXXO++",
"++XXXXXXXXX++XXXXXXXXX++",
"++XXXXXXXXX++XXXXXXXXX++",
"++XXXXXXXXX++++++XXXXX++",
"++XXXXXXXXX++++++XXXXX++",
"++XXXXXXXXXXXXXXXXXXXO++",
"+++XXXXXXXXXXXXXXXXXX+++",
"+++XXXXXXXXXXXXXXXXXX+++",
"++++XXXXXXXXXXXXXXXX++++",
"++++XXXXXXXXXXXXXXXX++++",
"+++++XXXXXXXXXXXXXX+++++",
"+++++++XXXXXXXXXX+++++++",
"+++++++++OXXXXX+++++++++",
"++++++++++++++++++++++++",
"++++++++++++++++++++++++"
};
