/* XPM */
static char *cpu[] = {
/* columns rows colors chars-per-pixel */
"24 24 4 1 ",
"  c #A6ABCD",
". c #A6ACCD",
"X c #A6ACCE",
"o c None",
/* pixels */
"oooooooooooooooooooooooo",
"oooooooooooooooooooooooo",
"oooooooo..oooo..oooooooo",
"oooooooo..oooo..oooooooo",
"oooo ...............oooo",
"oooo................oooo",
"oooo..oooooooooooo..oooo",
"oooo..oooooooooooo..oooo",
"oo....oo........oo....oo",
"oo....oo........oo....oo",
"oooo..oo........oo..oooo",
"oooo..oo........oo..oooo",
"oooo..oo........oo..oooo",
"oooo..oo........oo..oooo",
"oo....oo........oo....oo",
"oo....oo........oo....oo",
"oooo..oooooooooooo..oooo",
"oooo..oooooooooooo..oooo",
"oooo................oooo",
"oooo .............. oooo",
"oooooooo..oooo..oooooooo",
"oooooooo..oooo..oooooooo",
"oooooooooooooooooooooooo",
"oooooooooooooooooooooooo"
};
